<?xml version="1.0" encoding="UTF-8"?>
<svg width="32px" height="32px" viewBox="0 0 32 32" version="1.1" xmlns="http://www.w3.org/2000/svg" xmlns:xlink="http://www.w3.org/1999/xlink">
    <title>close (5)</title>
    <g id="Page-1" stroke="none" stroke-width="1" fill="none" fill-rule="evenodd">
        <g id="0,2-Roche-Landing---Web" transform="translate(-320.000000, -164.000000)" fill="#FFFFFF" fill-rule="nonzero">
            <g id="close-(5)" transform="translate(320.000000, 164.000000)">
                <path d="M18.8897727,15.9776515 L31.3223485,3.54469702 C32.1314394,2.73598487 32.1314394,1.42840912 31.3223485,0.61969697 C30.5136364,-0.189015176 29.2060606,-0.189015176 28.3973485,0.61969697 L15.9643939,13.0526515 L3.53181818,0.61969697 C2.72272727,-0.189015176 1.41553028,-0.189015176 0.606818133,0.61969697 C-0.202272776,1.42840912 -0.202272776,2.73598487 0.606818133,3.54469702 L13.0393939,15.9776515 L0.606818133,28.4106061 C-0.202272776,29.2193182 -0.202272776,30.526894 0.606818133,31.3356061 C1.00984844,31.7390152 1.5397727,31.9416667 2.06931821,31.9416667 C2.59886361,31.9416667 3.12840912,31.7390152 3.53181818,31.3356061 L15.9643939,18.9026515 L28.3973485,31.3356061 C28.8007575,31.7390152 29.330303,31.9416667 29.8598485,31.9416667 C30.3893939,31.9416667 30.9189393,31.7390152 31.3223485,31.3356061 C32.1314394,30.526894 32.1314394,29.2193182 31.3223485,28.4106061 L18.8897727,15.9776515 Z" id="Path"></path>
            </g>
        </g>
    </g>
</svg>