<?xml version="1.0" encoding="UTF-8"?>
<svg width="24px" height="24px" viewBox="0 0 24 24" version="1.1" xmlns="http://www.w3.org/2000/svg" xmlns:xlink="http://www.w3.org/1999/xlink">
    <title>Path</title>
    <g id="Page-1" stroke="none" stroke-width="1" fill="none" fill-rule="evenodd">
        <g id="facebook-(1)" fill="#84B9DB" fill-rule="nonzero">
            <path d="M22.269104,-1.33226763e-15 L1.73089598,-1.33226763e-15 C0.774902344,-1.33226763e-15 1.33226763e-15,0.774902344 1.33226763e-15,1.73089598 L1.33226763e-15,22.269104 C1.33226763e-15,23.2250977 0.774902344,24 1.73089598,24 L12.8203125,24 L12.8203125,14.71875 L9.703125,14.71875 L9.703125,11.0859375 L12.8203125,11.0859375 L12.8203125,8.41241456 C12.8203125,5.31207277 14.7130737,3.62457277 17.4786987,3.62457277 C18.8032837,3.62457277 19.9416504,3.72326662 20.2734375,3.76739503 L20.2734375,7.0078125 L18.366394,7.0078125 C16.8616333,7.0078125 16.5703125,7.72283934 16.5703125,8.7722168 L16.5703125,11.0859375 L20.1679688,11.0859375 L19.6992188,14.71875 L16.5703125,14.71875 L16.5703125,24 L22.269104,24 C23.2250977,24 24,23.2250977 24,22.269104 L24,1.73089598 C24,0.774902344 23.2250977,-1.33226763e-15 22.269104,-1.33226763e-15 Z" id="Path"></path>
        </g>
    </g>
</svg>