<?xml version="1.0" encoding="UTF-8"?>
<svg width="11px" height="16px" viewBox="0 0 11 16" version="1.1" xmlns="http://www.w3.org/2000/svg" xmlns:xlink="http://www.w3.org/1999/xlink">
    <title>ic_location_on_24px</title>
    <g id="Page-1" stroke="none" stroke-width="1" fill="none" fill-rule="evenodd">
        <g id="0,0-Roche-Landing---Web" transform="translate(-829.000000, -1215.000000)" fill="#84B9DB" fill-rule="nonzero">
            <g id="Branches" transform="translate(0.000000, 868.000000)">
                <g id="Map" transform="translate(0.000000, 108.000000)">
                    <g id="Location" transform="translate(420.000000, 149.000000)">
                        <g id="Phone" transform="translate(322.000000, 85.000000)">
                            <g id="ic_location_on_24px" transform="translate(87.000000, 5.000000)">
                                <path d="M5.37599989,0 C2.40383995,0 0,2.40383995 0,5.37599989 C0,9.40799981 5.37599989,15.3599997 5.37599989,15.3599997 C5.37599989,15.3599997 10.7519998,9.40799981 10.7519998,5.37599989 C10.7519998,2.40383995 8.34815983,0 5.37599989,0 Z M5.37599989,7.29599986 C4.31615991,7.29599986 3.45599993,6.43583987 3.45599993,5.37599989 C3.45599993,4.31615991 4.31615991,3.45599993 5.37599989,3.45599993 C6.43583987,3.45599993 7.29599986,4.31615991 7.29599986,5.37599989 C7.29599986,6.43583987 6.43583987,7.29599986 5.37599989,7.29599986 Z" id="Shape"></path>
                            </g>
                        </g>
                    </g>
                </g>
            </g>
        </g>
    </g>
</svg>