<?xml version="1.0" encoding="UTF-8"?>
<svg width="16px" height="14px" viewBox="0 0 16 14" version="1.1" xmlns="http://www.w3.org/2000/svg" xmlns:xlink="http://www.w3.org/1999/xlink">
    <title>130-next</title>
    <g id="Page-1" stroke="none" stroke-width="1" fill="none" fill-rule="evenodd">
        <g id="0,0-Roche-Landing---Web" transform="translate(-805.000000, -2724.000000)" fill="#84B9DB" fill-rule="nonzero">
            <g id="Hemophilia" transform="translate(320.000000, 2004.000000)">
                <g id="Latest-News" transform="translate(0.000000, 312.000000)">
                    <g id="Group-3" transform="translate(437.000000, 85.000000)">
                        <g id="Group-2" transform="translate(32.000000, 224.000000)">
                            <g id="130-next" transform="translate(24.000000, 106.000000) scale(-1, 1) translate(-24.000000, -106.000000) translate(16.000000, 99.000000)">
                                <path d="M15.227875,6.32525 L0.6434375,6.32525 C0.2880625,6.32525 0,6.6135 0,6.9686875 C0,7.323875 0.28803125,7.612125 0.6434375,7.612125 L15.227875,7.612125 C15.58325,7.612125 15.8713125,7.32409375 15.8713125,6.9686875 C15.8713125,6.61328125 15.5832813,6.32525 15.227875,6.32525 L15.227875,6.32525 Z" id="Path"></path>
                                <path d="M15.81125,6.5135625 L9.50584375,0.20790625 C9.25446875,-0.04325 8.84740625,-0.04325 8.59603125,0.20790625 C8.34465625,0.45928125 8.34465625,0.86678125 8.59603125,1.1179375 L14.4465313,6.96865625 L8.59603125,12.8194063 C8.34465625,13.0705625 8.34465625,13.4780625 8.59603125,13.7292187 C8.72171875,13.8549062 8.88621875,13.91775 9.0509375,13.91775 C9.21565625,13.91775 9.38015625,13.8549062 9.50584375,13.7292187 L15.81125,7.42359375 C16.062625,7.17221875 16.062625,6.7646875 15.81125,6.5135625 L15.81125,6.5135625 Z" id="Path"></path>
                            </g>
                        </g>
                    </g>
                </g>
            </g>
        </g>
    </g>
</svg>