<?xml version="1.0" encoding="UTF-8"?>
<svg width="16px" height="16px" viewBox="0 0 16 16" version="1.1" xmlns="http://www.w3.org/2000/svg" xmlns:xlink="http://www.w3.org/1999/xlink">
    <title>phone-call (1)</title>
    <g id="Page-1" stroke="none" stroke-width="1" fill="none" fill-rule="evenodd">
        <g id="0,0-Roche-Landing---Web" transform="translate(-827.000000, -1291.000000)" fill="#84B9DB" fill-rule="nonzero">
            <g id="Branches" transform="translate(0.000000, 868.000000)">
                <g id="Map" transform="translate(0.000000, 108.000000)">
                    <g id="Location" transform="translate(420.000000, 149.000000)">
                        <g id="Phone" transform="translate(275.000000, 161.000000)">
                            <g id="phone-call-(1)" transform="translate(132.000000, 5.000000)">
                                <path d="M15.5536187,11.7341634 L13.3223346,9.50287938 C12.5254475,8.70599222 11.1707393,9.02477821 10.8519844,10.0607004 C10.6129183,10.77793 9.81603113,11.1763735 9.09883268,11.016965 C7.50505837,10.6185214 5.35346304,8.54661479 4.95501946,6.87315175 C4.71595331,6.15592218 5.1940856,5.35903502 5.91128405,5.12 C6.94723735,4.80124514 7.26599222,3.44653696 6.46910506,2.64964981 L4.23782101,0.418365759 C3.60031128,-0.139455253 2.64404669,-0.139455253 2.08622568,0.418365759 L0.572140078,1.93245136 C-0.941945525,3.52622568 0.73151751,7.74972763 4.47688716,11.4950973 C8.22225681,15.2404669 12.4457588,16.9936498 14.0395331,15.3998444 L15.5536187,13.8857588 C16.1114708,13.248249 16.1114708,12.2919844 15.5536187,11.7341634 Z" id="Path"></path>
                            </g>
                        </g>
                    </g>
                </g>
            </g>
        </g>
    </g>
</svg>