<?xml version="1.0" encoding="UTF-8"?>
<svg width="16px" height="16px" viewBox="0 0 16 16" version="1.1" xmlns="http://www.w3.org/2000/svg" xmlns:xlink="http://www.w3.org/1999/xlink">
    <title>167-wall-clock</title>
    <g id="Page-1" stroke="none" stroke-width="1" fill="none" fill-rule="evenodd">
        <g id="0,0-Roche-Landing---Web" transform="translate(-827.000000, -1253.000000)" fill="#84B9DB" fill-rule="nonzero">
            <g id="Branches" transform="translate(0.000000, 868.000000)">
                <g id="Map" transform="translate(0.000000, 108.000000)">
                    <g id="Location" transform="translate(420.000000, 149.000000)">
                        <g id="Phone" transform="translate(283.000000, 123.000000)">
                            <g id="167-wall-clock" transform="translate(124.000000, 5.000000)">
                                <path d="M13.1106005,2.24940009 C11.6600105,0.798870032 9.73140039,0 7.68000031,0 C5.62860022,0 3.69999015,0.798870032 2.24940009,2.24940009 C0.798870032,3.69999015 0,5.62860022 0,7.68000031 C0,9.73140039 0.798870032,11.6600105 2.24940009,13.1106005 C3.69999015,14.5611306 5.62860022,15.3600006 7.68000031,15.3600006 C9.73140039,15.3600006 11.6600105,14.5611306 13.1106005,13.1106005 C14.5611306,11.6600105 15.3600006,9.73140039 15.3600006,7.68000031 C15.3600006,5.62860022 14.5611306,3.69999015 13.1106005,2.24940009 Z M7.68000031,14.1600006 C4.10691016,14.1600006 1.20000005,11.2530904 1.20000005,7.68000031 C1.20000005,4.10691016 4.10691016,1.20000005 7.68000031,1.20000005 C11.2530904,1.20000005 14.1600006,4.10691016 14.1600006,7.68000031 C14.1600006,11.2530904 11.2530904,14.1600006 7.68000031,14.1600006 Z" id="Shape"></path>
                                <polygon id="Path" points="8.28000033 7.08000028 8.28000033 2.28000009 7.08000028 2.28000009 7.08000028 8.28000033 11.6400005 8.28000033 11.6400005 7.08000028"></polygon>
                            </g>
                        </g>
                    </g>
                </g>
            </g>
        </g>
    </g>
</svg>