<?xml version="1.0" encoding="UTF-8"?>
<svg width="14px" height="8px" viewBox="0 0 14 8" version="1.1" xmlns="http://www.w3.org/2000/svg" xmlns:xlink="http://www.w3.org/1999/xlink">
    <title>130-next</title>
    <g id="Page-1" stroke="none" stroke-width="1" fill="none" fill-rule="evenodd">
        <g id="Roche-Landing---Mobile" transform="translate(-32.000000, -36.000000)" fill="#84B9DB" fill-rule="nonzero">
            <g id="130-next" transform="translate(39.000000, 40.000000) scale(-1, 1) rotate(-270.000000) translate(-39.000000, -40.000000) translate(35.000000, 33.000000)">
                <path d="M7.81125,6.5135625 L1.50584375,0.20790625 C1.25446875,-0.04325 0.84740625,-0.04325 0.59603125,0.20790625 C0.34465625,0.45928125 0.34465625,0.86678125 0.59603125,1.1179375 L6.44653125,6.96865625 L0.59603125,12.8194063 C0.34465625,13.0705625 0.34465625,13.4780625 0.59603125,13.7292188 C0.72171875,13.8549063 0.88621875,13.91775 1.0509375,13.91775 C1.21565625,13.91775 1.38015625,13.8549063 1.50584375,13.7292188 L7.81125,7.42359375 C8.062625,7.17221875 8.062625,6.7646875 7.81125,6.5135625 L7.81125,6.5135625 Z" id="Path"></path>
            </g>
        </g>
    </g>
</svg>