<?xml version="1.0" encoding="UTF-8"?>
<svg width="16px" height="16px" viewBox="0 0 16 16" version="1.1" xmlns="http://www.w3.org/2000/svg" xmlns:xlink="http://www.w3.org/1999/xlink">
    <title>Group 12</title>
    <g id="Page-1" stroke="none" stroke-width="1" fill="none" fill-rule="evenodd">
        <g id="0,0-Roche-Landing---Web" transform="translate(-827.000000, -1329.000000)">
            <g id="Branches" transform="translate(0.000000, 868.000000)">
                <g id="Map" transform="translate(0.000000, 108.000000)">
                    <g id="Location" transform="translate(420.000000, 149.000000)">
                        <g id="Email" transform="translate(249.000000, 199.000000)">
                            <g id="Group-12" transform="translate(158.000000, 5.000000)">
                                <rect id="Rectangle" x="0" y="0" width="16" height="16"></rect>
                                <g id="mail-(1)" transform="translate(0.000000, 2.000000)" fill="#84B9DB" fill-rule="nonzero">
                                    <path d="M15.8590625,0.80378125 L11.0065938,5.625 L15.8590625,10.4462187 C15.9467813,10.262875 16,10.0601875 16,9.84375 L16,1.40625 C16,1.18978125 15.9467813,0.987125 15.8590625,0.80378125 Z" id="Path"></path>
                                    <path d="M14.59375,0 L1.40625,0 C1.18978125,0 0.987125,0.05321875 0.80378125,0.1409375 L7.00575,6.31165625 C7.554125,6.86003125 8.445875,6.86003125 8.99425,6.31165625 L15.1962187,0.1409375 C15.012875,0.05321875 14.8102188,0 14.59375,0 Z" id="Path"></path>
                                    <path d="M0.1409375,0.80378125 C0.05321875,0.987125 0,1.18978125 0,1.40625 L0,9.84375 C0,10.0602188 0.05321875,10.2629063 0.1409375,10.4462187 L4.99340625,5.625 L0.1409375,0.80378125 Z" id="Path"></path>
                                    <path d="M10.34375,6.28784375 L9.65709375,6.9745 C8.743375,7.88821875 7.25659375,7.88821875 6.342875,6.9745 L5.65625,6.28784375 L0.80378125,11.1090625 C0.987125,11.1967813 1.18978125,11.25 1.40625,11.25 L14.59375,11.25 C14.8102188,11.25 15.012875,11.1967813 15.1962187,11.1090625 L10.34375,6.28784375 Z" id="Path"></path>
                                </g>
                            </g>
                        </g>
                    </g>
                </g>
            </g>
        </g>
    </g>
</svg>