<?xml version="1.0" encoding="UTF-8"?>
<svg width="48px" height="68px" viewBox="0 0 48 68" version="1.1" xmlns="http://www.w3.org/2000/svg" xmlns:xlink="http://www.w3.org/1999/xlink">
    <title>ic_pin_drop_48px</title>
    <g id="Page-1" stroke="none" stroke-width="1" fill="none" fill-rule="evenodd">
        <g id="0,0-Roche-Landing---Web" transform="translate(-875.000000, -1220.000000)" fill="#273148" fill-rule="nonzero">
            <g id="Branches" transform="translate(0.000000, 868.000000)">
                <g id="Map" transform="translate(0.000000, 108.000000)">
                    <g id="ic_pin_drop_48px" transform="translate(875.000000, 244.000000)">
                        <path d="M48,24 C48,10.74 37.26,0 24,0 C10.74,0 0,10.74 0,24 C0,42 24,68 24,68 C24,68 48,42 48,24 Z M16,24 C16,19.58 19.58,16 24,16 C28.42,16 32,19.58 32,24 C32,28.42 28.42,32 24,32 C19.58,32 16,28.42 16,24 Z" id="Shape"></path>
                    </g>
                </g>
            </g>
        </g>
    </g>
</svg>